<?xml version="1.0" encoding="utf-8"?>
<!-- Generator: Adobe Illustrator 20.1.0, SVG Export Plug-In . SVG Version: 6.00 Build 0)  -->
<svg version="1.1" id="Layer_1" xmlns="http://www.w3.org/2000/svg" xmlns:xlink="http://www.w3.org/1999/xlink" x="0px" y="0px"
	 viewBox="0 0 66 45" style="enable-background:new 0 0 66 45;" xml:space="preserve">
<style type="text/css">
	.st0{fill:#545454;}
	.st1{enable-background:new    ;}
</style>
<g>
	<path class="st0" d="M54.2,14.2H51V6.5h3.2c2.4,0,4.2,1.1,4.2,4C58.4,13.2,56.7,14.2,54.2,14.2L54.2,14.2z M32.8,24.7
		c-1.9,0.1-3.9-1.1-4-3.1c-0.1-1.7,1.8-3.3,3.2-4l4.5,4.9C35.5,23.5,34.1,24.6,32.8,24.7L32.8,24.7z M12.7,19.1l3.4-10.5h0.1
		l3.3,10.5H12.7L12.7,19.1z M55.3,0.2H43.7v20.9l-6.3-6.6l-3.6-3.9c-0.9-1.1-2.1-2-2.2-3.6c-0.1-1.2,0.9-2.2,2.2-2.3
		c1.4-0.1,2.5,0.7,2.5,2.1c0.1,1.2-0.5,2-1.2,2.7l3.7,3.9c2-1.6,3.3-3.7,3.2-6.5c-0.2-4.6-4.2-7.3-8.5-7.1c-4.2,0.2-8.1,3.2-7.9,7.7
		c0.1,2.2,1.3,3.9,2.8,5.4c-1,0.5-1.9,1.1-2.7,1.7L20.2,0.2h-7.9L1,30.2h8l1.9-5.4h11.9l0,0c1.5,3.6,5.3,5.6,9.4,5.4
		c3.2-0.2,5.8-1.2,8.2-3.4l3.3,3.4l0,0H51v-10h4.2c5,0,10.7-2.9,10.7-10.3C66,2.8,59.5,0.2,55.3,0.2L55.3,0.2z"/>
	<g class="st1">
		<path class="st0" d="M0.7,33.8h2V40L5,37.4h2.5l-2.6,3L7.5,44H5l-2.2-3.3h0V44h-2V33.8z"/>
		<path class="st0" d="M8.2,37.4h1.9v0.9h0c0.1-0.1,0.2-0.3,0.3-0.4c0.1-0.1,0.3-0.2,0.4-0.3c0.2-0.1,0.3-0.2,0.6-0.2
			c0.2-0.1,0.4-0.1,0.7-0.1c0.5,0,0.9,0.1,1.2,0.2c0.3,0.2,0.6,0.4,0.7,0.7c0.2,0.3,0.3,0.6,0.4,1s0.1,0.8,0.1,1.2V44h-2v-3.2
			c0-0.2,0-0.4,0-0.6c0-0.2-0.1-0.4-0.1-0.6s-0.2-0.3-0.3-0.4c-0.1-0.1-0.3-0.2-0.6-0.2c-0.3,0-0.5,0-0.6,0.1
			c-0.2,0.1-0.3,0.2-0.4,0.4s-0.1,0.3-0.2,0.5c0,0.2,0,0.4,0,0.6V44h-2V37.4z"/>
		<path class="st0" d="M15.7,40.7c0-0.5,0.1-1,0.3-1.4c0.2-0.4,0.4-0.8,0.8-1.1c0.3-0.3,0.7-0.5,1.2-0.7c0.4-0.2,0.9-0.2,1.4-0.2
			c0.5,0,1,0.1,1.4,0.2c0.4,0.2,0.8,0.4,1.2,0.7c0.3,0.3,0.6,0.7,0.8,1.1c0.2,0.4,0.3,0.9,0.3,1.4c0,0.5-0.1,1-0.3,1.4
			c-0.2,0.4-0.4,0.8-0.8,1.1s-0.7,0.5-1.2,0.7c-0.4,0.2-0.9,0.2-1.4,0.2c-0.5,0-1-0.1-1.4-0.2c-0.4-0.2-0.8-0.4-1.2-0.7
			s-0.6-0.7-0.8-1.1C15.8,41.7,15.7,41.2,15.7,40.7z M17.8,40.7c0,0.5,0.1,0.9,0.4,1.2c0.3,0.3,0.7,0.5,1.2,0.5
			c0.5,0,0.9-0.2,1.2-0.5c0.3-0.3,0.4-0.7,0.4-1.2s-0.1-0.9-0.4-1.2c-0.3-0.3-0.7-0.5-1.2-0.5c-0.5,0-0.9,0.2-1.2,0.5
			C17.9,39.8,17.8,40.2,17.8,40.7z"/>
		<path class="st0" d="M23.4,37.4h2.2l1.3,4.1h0l1.1-4.1h2.2l1.2,4.1h0l1.2-4.1h2.1L32.5,44h-2l-1.4-4.4h0L27.9,44h-2L23.4,37.4z"/>
		<path class="st0" d="M41.5,33.8v4.5h0c0-0.1,0.1-0.3,0.2-0.4c0.1-0.1,0.2-0.2,0.4-0.3c0.2-0.1,0.3-0.2,0.5-0.2
			c0.2-0.1,0.4-0.1,0.7-0.1c0.5,0,0.9,0.1,1.2,0.2c0.3,0.2,0.6,0.4,0.7,0.7s0.3,0.6,0.4,1s0.1,0.8,0.1,1.2V44h-2v-3.2
			c0-0.2,0-0.4,0-0.6c0-0.2-0.1-0.4-0.1-0.6s-0.2-0.3-0.3-0.4c-0.1-0.1-0.3-0.2-0.6-0.2s-0.5,0-0.6,0.1c-0.2,0.1-0.3,0.2-0.4,0.4
			s-0.1,0.3-0.2,0.5s0,0.4,0,0.6V44h-2V33.8H41.5z"/>
		<path class="st0" d="M47,40.7c0-0.5,0.1-1,0.3-1.4c0.2-0.4,0.4-0.8,0.8-1.1c0.3-0.3,0.7-0.5,1.2-0.7c0.4-0.2,0.9-0.2,1.4-0.2
			s1,0.1,1.4,0.2c0.4,0.2,0.8,0.4,1.2,0.7c0.3,0.3,0.6,0.7,0.8,1.1c0.2,0.4,0.3,0.9,0.3,1.4c0,0.5-0.1,1-0.3,1.4
			c-0.2,0.4-0.4,0.8-0.8,1.1s-0.7,0.5-1.2,0.7s-0.9,0.2-1.4,0.2s-1-0.1-1.4-0.2c-0.4-0.2-0.8-0.4-1.2-0.7c-0.3-0.3-0.6-0.7-0.8-1.1
			C47,41.7,47,41.2,47,40.7z M49,40.7c0,0.5,0.1,0.9,0.4,1.2c0.3,0.3,0.7,0.5,1.2,0.5c0.5,0,0.9-0.2,1.2-0.5
			c0.3-0.3,0.4-0.7,0.4-1.2s-0.1-0.9-0.4-1.2c-0.3-0.3-0.7-0.5-1.2-0.5c-0.5,0-0.9,0.2-1.2,0.5C49.1,39.8,49,40.2,49,40.7z"/>
		<path class="st0" d="M54.6,37.4h2.2l1.3,4.1h0l1.1-4.1h2.2l1.2,4.1h0l1.2-4.1H66L63.7,44h-2l-1.4-4.4h0L59.1,44h-2L54.6,37.4z"/>
	</g>
</g>
</svg>
